<svg xmlns="http://www.w3.org/2000/svg" width="720" height="260" viewBox="0 0 720 260">
  <style>
    .box { fill:#f6f8fa; stroke:#2d7aee; stroke-width:2; rx:6; }
    .text { font: 14px/1.2 Arial, Helvetica, sans-serif; fill:#0b2545; }
    .title { font: 16px/1.2 Arial, Helvetica, sans-serif; font-weight:700; fill:#0b2545 }
    .arrow { fill:none; stroke:#2d7aee; stroke-width:2; marker-end:url(#arrow); }
    .muted { fill:#6b7280 }
  </style>
  <defs>
    <marker id="arrow" markerWidth="10" markerHeight="10" refX="8" refY="5" orient="auto">
      <path d="M0 0 L10 5 L0 10 z" fill="#2d7aee" />
    </marker>
  </defs>

  <!-- Registry diagram -->
  <g transform="translate(20,20)">
    <text class="title" x="0" y="0">Registry states</text>

    <rect class="box" x="0" y="30" width="120" height="40" />
    <text class="text" x="60" y="55" text-anchor="middle">live</text>

    <rect class="box" x="170" y="30" width="120" height="40" />
    <text class="text" x="230" y="55" text-anchor="middle">inactive</text>

    <!-- arrows -->
    <path class="arrow" d="M120 50 L170 50" />
    <path class="arrow" d="M170 40 L120 40" />
    <!-- notes -->
    <text class="muted" x="0" y="110"><tspan font-weight="700">live</tspan> → can be inactivated.</text>
    <text class="muted" x="0" y="130"><tspan font-weight="700">inactive</tspan> → can be reactivated to <tspan font-weight="700">live</tspan>.</text>
    <text class="muted" x="0" y="150">Deletion and restore are handled through the recovery APIs.</text>
  </g>

  <!-- Record diagram -->
  <g transform="translate(20,170)">
    <text class="title" x="0" y="0">Record states</text>

    <rect class="box" x="0" y="20" width="120" height="40" />
    <text class="text" x="60" y="45" text-anchor="middle">draft</text>

    <rect class="box" x="170" y="20" width="120" height="40" />
    <text class="text" x="230" y="45" text-anchor="middle">live</text>

    <!-- arrows -->
    <path class="arrow" d="M120 40 L170 40" />

    <text class="muted" x="0" y="80">From <tspan font-weight="700">draft</tspan> → only to <tspan font-weight="700">live</tspan>.</text>
    <text class="muted" x="0" y="100">Updating a live record creates a new <tspan font-weight="700">live</tspan> version.</text>
    <text class="muted" x="0" y="120">Deletion and restore are handled through the recovery APIs.</text>
  </g>
</svg>
